<mxfile host="app.diagrams.net" modified="2023-08-02T15:35:17.532Z" agent="Mozilla/5.0 (Windows NT 10.0; Win64; x64; rv:109.0) Gecko/20100101 Firefox/115.0" etag="kKnuCdMK4Cm2Me8nWhrD" version="21.6.6" type="github">
  <diagram name="Page-1" id="edf60f1a-56cd-e834-aa8a-f176f3a09ee4">
    <mxGraphModel dx="988" dy="702" grid="1" gridSize="10" guides="1" tooltips="1" connect="1" arrows="1" fold="1" page="1" pageScale="1" pageWidth="1100" pageHeight="850" background="none" math="0" shadow="0">
      <root>
        <mxCell id="0" />
        <mxCell id="1" parent="0" />
        <mxCell id="WuFYmjWyJJiPXNzGX6tQ-5" style="edgeStyle=orthogonalEdgeStyle;rounded=0;orthogonalLoop=1;jettySize=auto;html=1;exitX=0.5;exitY=1;exitDx=0;exitDy=0;entryX=0.5;entryY=0;entryDx=0;entryDy=0;" edge="1" parent="1" source="60e70716793133e9-2" target="WuFYmjWyJJiPXNzGX6tQ-3">
          <mxGeometry relative="1" as="geometry" />
        </mxCell>
        <mxCell id="60e70716793133e9-2" value="&lt;div&gt;Yêu cầu&amp;nbsp;&lt;/div&gt;&lt;div&gt;mượn thiết bị&lt;br&gt;&lt;/div&gt;" style="shape=trapezoid;whiteSpace=wrap;html=1;rounded=0;shadow=1;labelBackgroundColor=none;strokeWidth=1;fontFamily=Verdana;fontSize=8;align=center;flipV=1;" parent="1" vertex="1">
          <mxGeometry x="190" y="110" width="120" height="60" as="geometry" />
        </mxCell>
        <mxCell id="WuFYmjWyJJiPXNzGX6tQ-14" style="edgeStyle=orthogonalEdgeStyle;rounded=0;orthogonalLoop=1;jettySize=auto;html=1;exitX=0;exitY=0.5;exitDx=0;exitDy=0;entryX=0;entryY=0.5;entryDx=0;entryDy=0;" edge="1" parent="1" source="60e70716793133e9-28" target="WuFYmjWyJJiPXNzGX6tQ-7">
          <mxGeometry relative="1" as="geometry">
            <Array as="points">
              <mxPoint x="160" y="600" />
              <mxPoint x="160" y="340" />
            </Array>
          </mxGeometry>
        </mxCell>
        <mxCell id="WuFYmjWyJJiPXNzGX6tQ-17" style="edgeStyle=orthogonalEdgeStyle;rounded=0;orthogonalLoop=1;jettySize=auto;html=1;exitX=0.5;exitY=1;exitDx=0;exitDy=0;entryX=0.5;entryY=0;entryDx=0;entryDy=0;" edge="1" parent="1" source="60e70716793133e9-28" target="WuFYmjWyJJiPXNzGX6tQ-15">
          <mxGeometry relative="1" as="geometry" />
        </mxCell>
        <mxCell id="60e70716793133e9-28" value="Cập nhật tồn kho" style="whiteSpace=wrap;html=1;rounded=0;shadow=1;labelBackgroundColor=none;strokeWidth=1;fontFamily=Verdana;fontSize=8;align=center;" parent="1" vertex="1">
          <mxGeometry x="190" y="580" width="120" height="40" as="geometry" />
        </mxCell>
        <mxCell id="60e70716793133e9-30" value="End" style="strokeWidth=1;html=1;shape=mxgraph.flowchart.terminator;whiteSpace=wrap;rounded=0;shadow=1;labelBackgroundColor=none;fontFamily=Verdana;fontSize=8;align=center;" parent="1" vertex="1">
          <mxGeometry x="220" y="720" width="60" height="30" as="geometry" />
        </mxCell>
        <mxCell id="WuFYmjWyJJiPXNzGX6tQ-1" value="QUI TRÌNH MƯỢN / TRẢ THIẾT BỊ" style="text;html=1;strokeColor=none;fillColor=none;align=center;verticalAlign=middle;whiteSpace=wrap;rounded=1;strokeWidth=3;fontSize=17;fontStyle=1" vertex="1" parent="1">
          <mxGeometry x="360" width="300" height="30" as="geometry" />
        </mxCell>
        <mxCell id="WuFYmjWyJJiPXNzGX6tQ-4" style="edgeStyle=orthogonalEdgeStyle;rounded=0;orthogonalLoop=1;jettySize=auto;html=1;exitX=0.5;exitY=1;exitDx=0;exitDy=0;entryX=0.5;entryY=0;entryDx=0;entryDy=0;" edge="1" parent="1" source="WuFYmjWyJJiPXNzGX6tQ-2" target="60e70716793133e9-2">
          <mxGeometry relative="1" as="geometry" />
        </mxCell>
        <mxCell id="WuFYmjWyJJiPXNzGX6tQ-2" value="Người dùng" style="ellipse;whiteSpace=wrap;html=1;" vertex="1" parent="1">
          <mxGeometry x="210" y="10" width="80" height="60" as="geometry" />
        </mxCell>
        <mxCell id="WuFYmjWyJJiPXNzGX6tQ-18" style="edgeStyle=orthogonalEdgeStyle;rounded=0;orthogonalLoop=1;jettySize=auto;html=1;exitX=0.5;exitY=1;exitDx=0;exitDy=0;entryX=0.5;entryY=0;entryDx=0;entryDy=0;" edge="1" parent="1" source="WuFYmjWyJJiPXNzGX6tQ-3" target="WuFYmjWyJJiPXNzGX6tQ-7">
          <mxGeometry relative="1" as="geometry" />
        </mxCell>
        <mxCell id="WuFYmjWyJJiPXNzGX6tQ-3" value="IS" style="ellipse;whiteSpace=wrap;html=1;" vertex="1" parent="1">
          <mxGeometry x="210" y="220" width="80" height="60" as="geometry" />
        </mxCell>
        <mxCell id="WuFYmjWyJJiPXNzGX6tQ-6" value="&lt;b&gt;Đánh giá yêu cầu&lt;/b&gt;" style="text;html=1;strokeColor=none;fillColor=none;align=center;verticalAlign=middle;whiteSpace=wrap;rounded=0;" vertex="1" parent="1">
          <mxGeometry x="70" y="280" width="110" height="30" as="geometry" />
        </mxCell>
        <mxCell id="WuFYmjWyJJiPXNzGX6tQ-19" style="edgeStyle=orthogonalEdgeStyle;rounded=0;orthogonalLoop=1;jettySize=auto;html=1;exitX=0.5;exitY=1;exitDx=0;exitDy=0;entryX=0.5;entryY=0;entryDx=0;entryDy=0;" edge="1" parent="1" source="WuFYmjWyJJiPXNzGX6tQ-7" target="WuFYmjWyJJiPXNzGX6tQ-8">
          <mxGeometry relative="1" as="geometry" />
        </mxCell>
        <mxCell id="WuFYmjWyJJiPXNzGX6tQ-7" value="Kiểm tra tồn kho" style="whiteSpace=wrap;html=1;rounded=0;shadow=1;labelBackgroundColor=none;strokeWidth=1;fontFamily=Verdana;fontSize=8;align=center;" vertex="1" parent="1">
          <mxGeometry x="190" y="320" width="120" height="40" as="geometry" />
        </mxCell>
        <mxCell id="WuFYmjWyJJiPXNzGX6tQ-20" style="edgeStyle=orthogonalEdgeStyle;rounded=0;orthogonalLoop=1;jettySize=auto;html=1;exitX=0.5;exitY=1;exitDx=0;exitDy=0;entryX=0.5;entryY=0;entryDx=0;entryDy=0;" edge="1" parent="1" source="WuFYmjWyJJiPXNzGX6tQ-8" target="WuFYmjWyJJiPXNzGX6tQ-9">
          <mxGeometry relative="1" as="geometry" />
        </mxCell>
        <mxCell id="WuFYmjWyJJiPXNzGX6tQ-8" value="Kiểm tra tình trạng thiệt bị" style="whiteSpace=wrap;html=1;rounded=0;shadow=1;labelBackgroundColor=none;strokeWidth=1;fontFamily=Verdana;fontSize=8;align=center;" vertex="1" parent="1">
          <mxGeometry x="190" y="385" width="120" height="40" as="geometry" />
        </mxCell>
        <mxCell id="WuFYmjWyJJiPXNzGX6tQ-10" style="edgeStyle=orthogonalEdgeStyle;rounded=0;orthogonalLoop=1;jettySize=auto;html=1;exitX=0.5;exitY=1;exitDx=0;exitDy=0;entryX=0.5;entryY=0;entryDx=0;entryDy=0;" edge="1" parent="1" source="WuFYmjWyJJiPXNzGX6tQ-9" target="60e70716793133e9-28">
          <mxGeometry relative="1" as="geometry" />
        </mxCell>
        <mxCell id="WuFYmjWyJJiPXNzGX6tQ-11" value="Yes" style="edgeLabel;html=1;align=center;verticalAlign=middle;resizable=0;points=[];" vertex="1" connectable="0" parent="WuFYmjWyJJiPXNzGX6tQ-10">
          <mxGeometry x="-0.28" y="4" relative="1" as="geometry">
            <mxPoint as="offset" />
          </mxGeometry>
        </mxCell>
        <mxCell id="WuFYmjWyJJiPXNzGX6tQ-22" style="edgeStyle=orthogonalEdgeStyle;rounded=0;orthogonalLoop=1;jettySize=auto;html=1;exitX=1;exitY=0.5;exitDx=0;exitDy=0;entryX=0;entryY=0.5;entryDx=0;entryDy=0;" edge="1" parent="1" source="WuFYmjWyJJiPXNzGX6tQ-9" target="WuFYmjWyJJiPXNzGX6tQ-21">
          <mxGeometry relative="1" as="geometry" />
        </mxCell>
        <mxCell id="WuFYmjWyJJiPXNzGX6tQ-23" value="No" style="edgeLabel;html=1;align=center;verticalAlign=middle;resizable=0;points=[];" vertex="1" connectable="0" parent="WuFYmjWyJJiPXNzGX6tQ-22">
          <mxGeometry x="-0.2" y="-1" relative="1" as="geometry">
            <mxPoint as="offset" />
          </mxGeometry>
        </mxCell>
        <mxCell id="WuFYmjWyJJiPXNzGX6tQ-9" value="Đảm bảo" style="rhombus;whiteSpace=wrap;html=1;rounded=0;shadow=1;labelBackgroundColor=none;strokeWidth=1;fontFamily=Verdana;fontSize=8;align=center;" vertex="1" parent="1">
          <mxGeometry x="200" y="470" width="100" height="60" as="geometry" />
        </mxCell>
        <mxCell id="WuFYmjWyJJiPXNzGX6tQ-16" style="edgeStyle=orthogonalEdgeStyle;rounded=0;orthogonalLoop=1;jettySize=auto;html=1;entryX=0.5;entryY=0;entryDx=0;entryDy=0;entryPerimeter=0;" edge="1" parent="1" source="WuFYmjWyJJiPXNzGX6tQ-15" target="60e70716793133e9-30">
          <mxGeometry relative="1" as="geometry" />
        </mxCell>
        <mxCell id="WuFYmjWyJJiPXNzGX6tQ-15" value="In biên bảng bàn giao" style="whiteSpace=wrap;html=1;rounded=0;shadow=1;labelBackgroundColor=none;strokeWidth=1;fontFamily=Verdana;fontSize=8;align=center;" vertex="1" parent="1">
          <mxGeometry x="190" y="650" width="120" height="40" as="geometry" />
        </mxCell>
        <mxCell id="WuFYmjWyJJiPXNzGX6tQ-24" style="edgeStyle=orthogonalEdgeStyle;rounded=0;orthogonalLoop=1;jettySize=auto;html=1;exitX=0.5;exitY=0;exitDx=0;exitDy=0;entryX=1;entryY=0.5;entryDx=0;entryDy=0;" edge="1" parent="1" source="WuFYmjWyJJiPXNzGX6tQ-21" target="WuFYmjWyJJiPXNzGX6tQ-2">
          <mxGeometry relative="1" as="geometry" />
        </mxCell>
        <mxCell id="WuFYmjWyJJiPXNzGX6tQ-21" value="Cập nhật hiện trạng" style="whiteSpace=wrap;html=1;rounded=0;shadow=1;labelBackgroundColor=none;strokeWidth=1;fontFamily=Verdana;fontSize=8;align=center;" vertex="1" parent="1">
          <mxGeometry x="340" y="480" width="120" height="40" as="geometry" />
        </mxCell>
        <mxCell id="WuFYmjWyJJiPXNzGX6tQ-25" style="edgeStyle=orthogonalEdgeStyle;rounded=0;orthogonalLoop=1;jettySize=auto;html=1;exitX=0.5;exitY=1;exitDx=0;exitDy=0;entryX=0.5;entryY=0;entryDx=0;entryDy=0;" edge="1" parent="1" source="WuFYmjWyJJiPXNzGX6tQ-26" target="WuFYmjWyJJiPXNzGX6tQ-33">
          <mxGeometry relative="1" as="geometry" />
        </mxCell>
        <mxCell id="WuFYmjWyJJiPXNzGX6tQ-26" value="&lt;div&gt;Xuất trình biên bảng&lt;/div&gt;&lt;div&gt;bàn giao&lt;/div&gt;" style="shape=trapezoid;whiteSpace=wrap;html=1;rounded=0;shadow=1;labelBackgroundColor=none;strokeWidth=1;fontFamily=Verdana;fontSize=8;align=center;flipV=1;" vertex="1" parent="1">
          <mxGeometry x="670" y="110" width="120" height="60" as="geometry" />
        </mxCell>
        <mxCell id="WuFYmjWyJJiPXNzGX6tQ-27" style="edgeStyle=orthogonalEdgeStyle;rounded=0;orthogonalLoop=1;jettySize=auto;html=1;exitX=0;exitY=0.5;exitDx=0;exitDy=0;entryX=0;entryY=0.5;entryDx=0;entryDy=0;" edge="1" parent="1" source="WuFYmjWyJJiPXNzGX6tQ-29" target="WuFYmjWyJJiPXNzGX6tQ-36">
          <mxGeometry relative="1" as="geometry">
            <Array as="points">
              <mxPoint x="640" y="600" />
              <mxPoint x="640" y="340" />
            </Array>
          </mxGeometry>
        </mxCell>
        <mxCell id="WuFYmjWyJJiPXNzGX6tQ-50" style="edgeStyle=orthogonalEdgeStyle;rounded=0;orthogonalLoop=1;jettySize=auto;html=1;exitX=0.5;exitY=1;exitDx=0;exitDy=0;entryX=0.5;entryY=0;entryDx=0;entryDy=0;entryPerimeter=0;" edge="1" parent="1" source="WuFYmjWyJJiPXNzGX6tQ-29" target="WuFYmjWyJJiPXNzGX6tQ-30">
          <mxGeometry relative="1" as="geometry" />
        </mxCell>
        <mxCell id="WuFYmjWyJJiPXNzGX6tQ-29" value="Cập nhật tồn kho" style="whiteSpace=wrap;html=1;rounded=0;shadow=1;labelBackgroundColor=none;strokeWidth=1;fontFamily=Verdana;fontSize=8;align=center;" vertex="1" parent="1">
          <mxGeometry x="670" y="580" width="120" height="40" as="geometry" />
        </mxCell>
        <mxCell id="WuFYmjWyJJiPXNzGX6tQ-30" value="End" style="strokeWidth=1;html=1;shape=mxgraph.flowchart.terminator;whiteSpace=wrap;rounded=0;shadow=1;labelBackgroundColor=none;fontFamily=Verdana;fontSize=8;align=center;" vertex="1" parent="1">
          <mxGeometry x="700" y="720" width="60" height="30" as="geometry" />
        </mxCell>
        <mxCell id="WuFYmjWyJJiPXNzGX6tQ-31" style="edgeStyle=orthogonalEdgeStyle;rounded=0;orthogonalLoop=1;jettySize=auto;html=1;exitX=0.5;exitY=1;exitDx=0;exitDy=0;entryX=0.5;entryY=0;entryDx=0;entryDy=0;" edge="1" parent="1" target="WuFYmjWyJJiPXNzGX6tQ-26">
          <mxGeometry relative="1" as="geometry">
            <mxPoint x="730" y="70" as="sourcePoint" />
          </mxGeometry>
        </mxCell>
        <mxCell id="WuFYmjWyJJiPXNzGX6tQ-32" style="edgeStyle=orthogonalEdgeStyle;rounded=0;orthogonalLoop=1;jettySize=auto;html=1;exitX=0.5;exitY=1;exitDx=0;exitDy=0;entryX=0.5;entryY=0;entryDx=0;entryDy=0;" edge="1" parent="1" source="WuFYmjWyJJiPXNzGX6tQ-33" target="WuFYmjWyJJiPXNzGX6tQ-36">
          <mxGeometry relative="1" as="geometry" />
        </mxCell>
        <mxCell id="WuFYmjWyJJiPXNzGX6tQ-33" value="IS" style="ellipse;whiteSpace=wrap;html=1;" vertex="1" parent="1">
          <mxGeometry x="690" y="220" width="80" height="60" as="geometry" />
        </mxCell>
        <mxCell id="WuFYmjWyJJiPXNzGX6tQ-34" value="&lt;b&gt;Đánh giá yêu cầu&lt;/b&gt;" style="text;html=1;strokeColor=none;fillColor=none;align=center;verticalAlign=middle;whiteSpace=wrap;rounded=0;" vertex="1" parent="1">
          <mxGeometry x="560" y="280" width="100" height="30" as="geometry" />
        </mxCell>
        <mxCell id="WuFYmjWyJJiPXNzGX6tQ-35" style="edgeStyle=orthogonalEdgeStyle;rounded=0;orthogonalLoop=1;jettySize=auto;html=1;exitX=0.5;exitY=1;exitDx=0;exitDy=0;entryX=0.5;entryY=0;entryDx=0;entryDy=0;" edge="1" parent="1" source="WuFYmjWyJJiPXNzGX6tQ-36">
          <mxGeometry relative="1" as="geometry">
            <mxPoint x="730" y="385" as="targetPoint" />
          </mxGeometry>
        </mxCell>
        <mxCell id="WuFYmjWyJJiPXNzGX6tQ-36" value="Kiểm tra danh sách tồn kho với biên bảng" style="whiteSpace=wrap;html=1;rounded=0;shadow=1;labelBackgroundColor=none;strokeWidth=1;fontFamily=Verdana;fontSize=8;align=center;" vertex="1" parent="1">
          <mxGeometry x="670" y="320" width="120" height="40" as="geometry" />
        </mxCell>
        <mxCell id="WuFYmjWyJJiPXNzGX6tQ-37" style="edgeStyle=orthogonalEdgeStyle;rounded=0;orthogonalLoop=1;jettySize=auto;html=1;exitX=0.5;exitY=1;exitDx=0;exitDy=0;entryX=0.5;entryY=0;entryDx=0;entryDy=0;" edge="1" parent="1" target="WuFYmjWyJJiPXNzGX6tQ-43">
          <mxGeometry relative="1" as="geometry">
            <mxPoint x="730" y="425" as="sourcePoint" />
          </mxGeometry>
        </mxCell>
        <mxCell id="WuFYmjWyJJiPXNzGX6tQ-39" style="edgeStyle=orthogonalEdgeStyle;rounded=0;orthogonalLoop=1;jettySize=auto;html=1;exitX=0.5;exitY=1;exitDx=0;exitDy=0;entryX=0.5;entryY=0;entryDx=0;entryDy=0;" edge="1" parent="1" source="WuFYmjWyJJiPXNzGX6tQ-43" target="WuFYmjWyJJiPXNzGX6tQ-29">
          <mxGeometry relative="1" as="geometry" />
        </mxCell>
        <mxCell id="WuFYmjWyJJiPXNzGX6tQ-40" value="Yes" style="edgeLabel;html=1;align=center;verticalAlign=middle;resizable=0;points=[];" vertex="1" connectable="0" parent="WuFYmjWyJJiPXNzGX6tQ-39">
          <mxGeometry x="-0.28" y="4" relative="1" as="geometry">
            <mxPoint as="offset" />
          </mxGeometry>
        </mxCell>
        <mxCell id="WuFYmjWyJJiPXNzGX6tQ-41" style="edgeStyle=orthogonalEdgeStyle;rounded=0;orthogonalLoop=1;jettySize=auto;html=1;exitX=1;exitY=0.5;exitDx=0;exitDy=0;entryX=0;entryY=0.5;entryDx=0;entryDy=0;" edge="1" parent="1" source="WuFYmjWyJJiPXNzGX6tQ-43" target="WuFYmjWyJJiPXNzGX6tQ-47">
          <mxGeometry relative="1" as="geometry" />
        </mxCell>
        <mxCell id="WuFYmjWyJJiPXNzGX6tQ-42" value="No" style="edgeLabel;html=1;align=center;verticalAlign=middle;resizable=0;points=[];" vertex="1" connectable="0" parent="WuFYmjWyJJiPXNzGX6tQ-41">
          <mxGeometry x="-0.2" y="-1" relative="1" as="geometry">
            <mxPoint as="offset" />
          </mxGeometry>
        </mxCell>
        <mxCell id="WuFYmjWyJJiPXNzGX6tQ-43" value="Hợp lệ" style="rhombus;whiteSpace=wrap;html=1;rounded=0;shadow=1;labelBackgroundColor=none;strokeWidth=1;fontFamily=Verdana;fontSize=8;align=center;" vertex="1" parent="1">
          <mxGeometry x="680" y="470" width="100" height="60" as="geometry" />
        </mxCell>
        <mxCell id="WuFYmjWyJJiPXNzGX6tQ-51" style="edgeStyle=orthogonalEdgeStyle;rounded=0;orthogonalLoop=1;jettySize=auto;html=1;exitX=0.5;exitY=0;exitDx=0;exitDy=0;entryX=1;entryY=0.5;entryDx=0;entryDy=0;" edge="1" parent="1" source="WuFYmjWyJJiPXNzGX6tQ-47" target="WuFYmjWyJJiPXNzGX6tQ-48">
          <mxGeometry relative="1" as="geometry">
            <Array as="points">
              <mxPoint x="880" y="480" />
              <mxPoint x="880" y="40" />
            </Array>
          </mxGeometry>
        </mxCell>
        <mxCell id="WuFYmjWyJJiPXNzGX6tQ-47" value="Cập nhật hiện trạng" style="whiteSpace=wrap;html=1;rounded=0;shadow=1;labelBackgroundColor=none;strokeWidth=1;fontFamily=Verdana;fontSize=8;align=center;" vertex="1" parent="1">
          <mxGeometry x="820" y="480" width="120" height="40" as="geometry" />
        </mxCell>
        <mxCell id="WuFYmjWyJJiPXNzGX6tQ-48" value="Người dùng" style="ellipse;whiteSpace=wrap;html=1;" vertex="1" parent="1">
          <mxGeometry x="690" y="10" width="80" height="60" as="geometry" />
        </mxCell>
        <mxCell id="WuFYmjWyJJiPXNzGX6tQ-49" value="Kiểm tra tình trạng thiệt bị" style="whiteSpace=wrap;html=1;rounded=0;shadow=1;labelBackgroundColor=none;strokeWidth=1;fontFamily=Verdana;fontSize=8;align=center;" vertex="1" parent="1">
          <mxGeometry x="670" y="385" width="120" height="40" as="geometry" />
        </mxCell>
      </root>
    </mxGraphModel>
  </diagram>
</mxfile>
